<?xml version="1.0" standalone="no"?>
<!DOCTYPE svg PUBLIC "-//W3C//DTD SVG 20010904//EN"
 "http://www.w3.org/TR/2001/REC-SVG-20010904/DTD/svg10.dtd">
<svg version="1.0" xmlns="http://www.w3.org/2000/svg"
  viewBox="0 0 960.000000 582.000000"
 preserveAspectRatio="xMidYMid meet">
<g transform="translate(0.000000,582.000000) scale(0.100000,-0.100000)"
fill="#000000" stroke="none">
<path d="M3784 5140 c-73 -38 -213 -136 -221 -156 -9 -24 3 -27 54 -11 107 35
127 19 71 -56 -18 -24 -42 -56 -53 -72 l-21 -28 -154 17 c-1268 136 -1870 169
-2190 120 -248 -38 -500 -196 -585 -366 -30 -61 -35 -80 -35 -142 0 -63 5 -82
39 -152 44 -90 135 -231 206 -319 125 -155 257 -285 289 -285 12 0 -16 44
-100 156 -164 218 -303 465 -339 599 -51 194 107 342 428 400 276 51 811 31
1507 -56 265 -33 841 -117 847 -123 3 -2 -56 -114 -130 -248 -609 -1103 -1081
-2146 -1193 -2638 -30 -133 -33 -259 -6 -283 35 -31 95 -16 112 28 7 18 3 40
-12 82 -36 101 -30 173 29 348 153 450 571 1314 1035 2135 58 102 111 196 118
210 13 24 14 22 30 -45 19 -83 60 -161 108 -210 61 -61 65 -41 12 65 -43 86
-70 185 -70 259 0 63 3 71 61 169 33 56 67 102 74 102 7 0 136 -20 287 -45
281 -46 447 -69 579 -81 90 -8 118 3 188 75 89 90 112 185 71 293 -11 29 -20
55 -20 57 0 2 89 1 198 -2 205 -6 435 -32 607 -67 781 -160 1255 -479 1391
-937 33 -112 38 -299 11 -403 -77 -289 -302 -491 -740 -664 -244 -96 -534
-164 -737 -173 l-125 -5 -59 31 c-72 38 -98 39 -126 4 -19 -24 -21 -36 -16
-83 13 -131 155 -457 344 -790 139 -246 214 -330 359 -402 81 -40 92 -43 167
-43 63 0 93 6 133 24 66 29 80 56 26 47 -135 -21 -169 -20 -235 11 -126 59
-228 182 -343 412 -157 315 -284 711 -232 725 6 2 66 9 132 15 388 36 894 205
1188 397 118 77 274 228 326 316 137 234 147 510 25 756 -79 161 -234 327
-423 454 -217 145 -471 249 -815 334 -288 71 -535 102 -863 111 l-232 6 -26
29 c-27 30 -44 36 -46 16 -1 -7 -2 -22 -3 -33 -1 -16 -9 -20 -41 -22 -270 -16
-678 -97 -796 -159 -17 -8 -33 -13 -36 -11 -2 3 30 56 71 119 82 122 92 157
56 196 -30 32 -84 29 -156 -8z m946 -241 c21 -76 16 -120 -16 -147 -29 -25
-29 -25 -194 -18 -161 6 -626 49 -636 59 -7 7 202 63 326 87 123 24 357 53
472 58 36 2 38 0 48 -39z"/>
<path d="M5795 4170 c-3 -5 -3 -31 1 -58 6 -48 6 -48 -83 -172 -177 -249 -495
-712 -666 -971 -444 -674 -606 -988 -542 -1052 23 -24 62 -31 104 -21 36 9 36
9 43 74 11 113 75 269 207 505 119 212 264 438 660 1030 206 308 377 570 379
583 8 43 -82 116 -103 82z"/>
<path d="M7389 3621 c-50 -33 -115 -98 -153 -155 -48 -72 -26 -124 58 -133 36
-4 54 0 88 20 83 48 178 167 178 222 0 9 -13 30 -29 46 -39 38 -82 38 -142 0z"/>
<path d="M8680 3493 c-165 -71 -306 -170 -463 -327 -267 -266 -434 -541 -523
-863 -8 -32 -332 -246 -516 -342 -130 -68 -199 -91 -275 -91 -45 0 -58 4 -80
26 -40 40 -30 100 44 264 34 74 68 152 77 172 8 21 95 187 192 370 145 271
177 340 178 375 1 56 -32 93 -85 93 -48 0 -77 -24 -99 -85 -9 -28 -72 -163
-138 -302 -258 -536 -322 -732 -278 -848 22 -56 100 -128 163 -149 84 -29 117
-22 238 45 131 73 332 203 466 304 l97 72 4 -71 c2 -50 11 -86 28 -121 35 -70
116 -147 196 -186 117 -58 222 -43 440 60 106 51 249 138 278 170 36 40 -8 32
-117 -22 -221 -110 -438 -168 -550 -148 -144 25 -206 145 -174 334 12 66 22
95 42 119 21 25 25 38 21 61 -7 37 38 123 162 311 171 258 517 587 717 682
100 48 175 22 175 -61 0 -85 -73 -179 -249 -323 -149 -120 -144 -115 -81 -96
89 26 175 71 253 133 139 110 205 213 193 298 -14 101 -88 163 -204 170 -56 3
-77 -1 -132 -24z"/>
<path d="M3808 1320 c-54 -16 -99 -53 -128 -104 -25 -43 -30 -62 -30 -121 0
-59 5 -78 30 -122 69 -121 220 -147 322 -55 54 49 78 102 78 177 0 75 -24 128
-78 177 -57 51 -126 69 -194 48z m122 -83 c49 -32 73 -79 73 -142 0 -63 -24
-110 -73 -142 -89 -61 -204 19 -204 142 0 87 66 165 139 165 18 0 47 -10 65
-23z"/>
<path d="M4748 1320 c-54 -16 -99 -53 -128 -104 -25 -43 -30 -62 -30 -121 0
-59 5 -78 30 -122 69 -121 220 -147 322 -55 54 49 78 102 78 177 0 75 -24 128
-78 177 -57 51 -126 69 -194 48z m122 -83 c49 -32 73 -79 73 -142 0 -63 -24
-110 -73 -142 -89 -61 -204 19 -204 142 0 87 66 165 139 165 18 0 47 -10 65
-23z"/>
<path d="M5196 1315 c-47 -16 -91 -57 -117 -107 -14 -28 -19 -58 -19 -121 0
-111 24 -161 95 -197 68 -34 187 -35 258 -3 47 22 47 22 47 71 0 36 4 52 16
56 10 4 14 15 12 33 l-3 28 -95 3 c-119 4 -140 -1 -140 -32 0 -29 16 -36 81
-36 47 0 49 -1 49 -28 0 -36 -31 -52 -101 -52 -54 0 -93 16 -124 50 -17 18
-20 36 -20 104 0 69 3 86 23 114 31 42 71 62 124 62 57 -1 90 -20 103 -61 7
-19 19 -35 29 -37 32 -7 46 17 46 78 0 66 -16 89 -52 73 -15 -6 -33 -5 -57 3
-47 17 -106 17 -155 -1z"/>
<path d="M2754 1307 c-11 -30 0 -52 29 -55 l27 -3 0 -154 0 -154 -27 -3 c-24
-3 -28 -8 -28 -33 l0 -30 110 -3 c135 -3 155 1 155 32 0 29 -16 36 -81 36
l-49 0 0 39 0 38 75 5 c60 4 82 10 114 32 92 64 93 182 2 238 -32 21 -51 23
-178 26 -121 3 -144 2 -149 -11z m290 -78 c38 -30 36 -79 -5 -113 -25 -22 -41
-26 -90 -26 l-59 0 0 80 0 80 64 0 c49 0 69 -5 90 -21z"/>
<path d="M3212 1308 c-18 -18 -15 -36 8 -50 19 -12 20 -24 20 -164 l0 -152
-25 -6 c-18 -5 -25 -13 -25 -30 0 -31 16 -36 105 -36 54 0 76 4 86 16 18 21 0
48 -35 52 -25 3 -26 6 -26 63 l0 59 85 0 85 0 0 -59 c0 -58 -1 -60 -27 -63
-24 -3 -28 -8 -28 -33 l0 -30 90 0 90 0 0 30 c0 23 -5 31 -22 33 -23 3 -23 5
-23 157 0 145 1 154 20 160 13 4 20 15 20 30 0 30 -23 37 -110 33 -65 -3 -65
-3 -65 -33 0 -25 4 -30 28 -33 26 -3 27 -5 27 -63 l0 -59 -85 0 -85 0 0 59 c0
57 1 60 26 63 35 4 53 31 35 52 -17 20 -150 23 -169 4z"/>
<path d="M4132 1234 c2 -70 6 -89 21 -98 30 -19 52 4 55 63 l3 51 40 0 39 0 0
-155 0 -155 -34 0 c-49 0 -66 -9 -66 -35 0 -32 15 -35 150 -35 95 0 120 3 131
16 22 26 -1 49 -55 52 l-46 3 0 155 0 154 45 0 45 0 0 -47 c0 -59 10 -76 41
-71 23 3 24 7 27 96 l3 92 -201 0 -201 0 3 -86z"/>
<path d="M5519 1304 c-18 -21 0 -48 35 -52 l26 -3 0 -154 0 -154 -26 -3 c-35
-4 -53 -31 -34 -53 11 -13 30 -15 109 -13 l96 3 0 30 c0 27 -3 30 -37 33 l-38
3 0 55 0 54 45 0 c39 0 50 -5 84 -40 21 -22 53 -62 72 -89 l34 -50 122 -1 c67
0 128 3 137 6 9 3 16 16 16 29 0 23 -17 35 -51 35 -22 0 -23 1 -7 35 11 24 14
25 104 25 l92 0 11 -30 c9 -26 8 -30 -9 -30 -33 0 -50 -12 -50 -35 0 -30 16
-35 110 -35 59 0 81 4 91 16 16 20 1 48 -29 52 -16 3 -35 39 -95 190 l-75 187
-108 0 -109 0 0 -30 c0 -28 3 -30 46 -35 l47 -5 -61 -152 -61 -153 -37 0 c-29
0 -41 5 -50 21 -6 12 -29 41 -50 64 l-39 42 41 42 c39 39 41 44 36 87 -6 57
-43 98 -102 113 -24 6 -95 11 -158 11 -92 0 -117 -3 -128 -16z m289 -72 c17
-13 23 -26 20 -47 -4 -38 -56 -65 -125 -65 l-53 0 0 65 0 65 68 0 c49 0 73 -5
90 -18z m430 -89 l31 -73 -64 0 -64 0 31 75 c17 42 32 74 33 73 2 -2 17 -36
33 -75z"/>
<path d="M6484 1307 c-11 -30 0 -52 29 -55 l27 -3 0 -154 0 -154 -27 -3 c-24
-3 -28 -8 -28 -33 l0 -30 110 -3 c135 -3 155 1 155 32 0 29 -16 36 -81 36
l-49 0 0 39 0 38 75 5 c60 4 82 10 114 32 92 64 93 182 2 238 -32 21 -51 23
-178 26 -121 3 -144 2 -149 -11z m290 -78 c38 -30 36 -79 -5 -113 -25 -22 -41
-26 -90 -26 l-59 0 0 80 0 80 64 0 c49 0 69 -5 90 -21z"/>
<path d="M6942 1308 c-18 -18 -15 -36 8 -50 19 -12 20 -24 20 -164 l0 -152
-25 -6 c-18 -5 -25 -13 -25 -30 0 -31 16 -36 105 -36 54 0 76 4 86 16 18 21 0
48 -35 52 -25 3 -26 6 -26 63 l0 59 85 0 85 0 0 -59 c0 -58 -1 -60 -27 -63
-24 -3 -28 -8 -28 -33 l0 -30 90 0 90 0 0 30 c0 23 -5 31 -22 33 -23 3 -23 5
-23 157 0 145 1 154 20 160 13 4 20 15 20 30 0 30 -23 37 -110 33 -65 -3 -65
-3 -65 -33 0 -25 4 -30 28 -33 26 -3 27 -5 27 -63 l0 -59 -85 0 -85 0 0 59 c0
57 1 60 26 63 35 4 53 31 35 52 -17 20 -150 23 -169 4z"/>
<path d="M7403 1313 c-7 -2 -13 -15 -13 -29 0 -17 7 -25 24 -30 16 -4 45 -38
90 -105 61 -92 66 -103 66 -154 l0 -55 -39 0 c-54 0 -71 -8 -71 -35 0 -31 15
-35 145 -35 130 0 145 4 145 35 0 27 -17 35 -71 35 l-39 0 0 58 c0 54 4 63 65
154 45 68 71 97 87 100 18 2 23 9 23 33 l0 30 -79 3 c-57 2 -82 -1 -87 -10
-13 -19 -11 -35 6 -52 14 -13 12 -20 -16 -67 -32 -51 -32 -51 -49 -29 -35 47
-55 93 -42 98 17 5 15 49 -4 56 -18 7 -123 7 -141 -1z"/>
</g>
</svg>
